<svg xmlns="http://www.w3.org/2000/svg" width="1081" height="970" viewBox="0 0 1081 970">
<g>
<path d="M 618.00 560.14 L 617.50 625.50 L 602.94 625.78 C594.94,625.93 588.07,625.74 587.69,625.36 C587.31,624.98 587.00,576.13 587.00,516.81 L 587.00 408.95 L 602.16 409.22 L 617.32 409.50 L 624.45 431.00 C643.30,487.79 653.39,517.57 654.03,518.32 C654.42,518.77 656.63,513.82 658.94,507.32 C662.90,496.17 692.00,409.86 692.00,409.27 C692.00,409.12 698.75,409.00 707.00,409.00 L 722.01 409.00 L 721.50 625.50 L 691.50 625.50 L 691.00 560.00 C690.57,504.16 690.31,495.16 689.21,499.00 C688.49,501.48 686.17,508.67 684.05,515.00 C681.93,521.33 676.49,538.42 671.96,553.00 C667.43,567.58 663.31,580.31 662.81,581.29 C662.02,582.82 660.76,583.04 654.19,582.79 L 646.50 582.50 L 641.33 566.50 C638.49,557.70 632.19,537.96 627.33,522.64 L 618.50 494.78 ZM 471.92 623.75 C471.06,625.95 470.69,626.00 455.49,626.00 C443.86,626.00 439.81,625.68 439.45,624.73 C439.18,624.04 440.58,617.62 442.55,610.48 C444.53,603.34 448.33,589.17 451.01,579.00 C453.69,568.83 457.07,556.22 458.52,551.00 C459.98,545.78 462.89,534.97 464.99,527.00 C467.10,519.03 471.16,503.73 474.01,493.00 C476.87,482.27 481.58,464.50 484.47,453.50 C487.36,442.50 491.21,427.99 493.02,421.25 L 496.31 409.00 L 522.68 409.00 L 530.48 438.25 C534.76,454.34 540.19,474.70 542.53,483.50 C554.73,529.30 560.84,552.05 567.66,576.98 C576.22,608.26 580.00,622.89 580.00,624.73 C580.00,625.70 576.28,626.00 563.97,626.00 C549.62,626.00 547.87,625.82 547.26,624.25 C546.89,623.29 543.85,611.70 540.50,598.50 L 534.42 574.50 L 509.25 574.23 L 484.09 573.97 L 483.16 577.73 C482.65,579.80 480.11,590.50 477.51,601.50 C474.91,612.50 472.40,622.51 471.92,623.75 ZM 492.71 545.34 C495.00,545.97 526.67,545.67 527.33,545.00 C527.61,544.72 524.53,531.00 520.50,514.50 C516.48,498.00 512.39,480.79 511.42,476.25 C510.45,471.71 509.40,468.00 509.08,468.00 C508.76,468.01 507.72,472.01 506.77,476.91 C505.82,481.81 503.49,492.27 501.58,500.16 C499.68,508.05 496.71,520.58 494.98,528.00 C493.25,535.42 491.63,542.25 491.38,543.17 C491.10,544.18 491.62,545.03 492.71,545.34 Z" fill="rgb(2,2,3)"/>
<path d="M 520.79 921.75 C520.60,921.98 520.43,922.18 520.24,922.34 C519.00,923.38 516.48,922.87 497.34,919.04 L 497.00 918.97 C484.53,916.48 462.08,910.63 456.86,908.53 C454.82,907.71 454.27,903.22 453.38,880.19 C452.85,866.42 452.39,862.49 451.11,861.00 C450.22,859.96 445.67,857.68 441.00,855.93 C431.90,852.51 400.79,837.53 389.89,831.32 L 383.28 827.55 L 379.39 830.21 C377.25,831.68 368.98,837.89 361.00,844.02 C353.02,850.15 345.72,855.59 344.76,856.11 C343.40,856.85 340.78,855.56 332.76,850.16 C313.71,837.36 291.00,818.54 291.00,815.56 C291.00,814.89 295.05,805.26 300.00,794.16 C304.95,783.07 308.99,773.43 308.99,772.74 C308.98,772.06 305.09,767.22 300.35,762.00 C289.10,749.61 280.19,738.89 270.70,726.30 C266.47,720.69 262.28,715.70 261.39,715.20 C259.58,714.19 258.83,714.31 233.03,719.96 C222.87,722.18 214.07,724.00 213.47,724.00 C209.91,724.00 183.76,671.38 184.06,664.83 C184.12,663.58 206.48,644.67 215.73,638.05 C218.05,636.38 220.23,633.95 220.55,632.65 C220.89,631.31 220.05,626.61 218.62,621.89 C213.89,606.14 211.36,594.55 206.46,566.21 C205.71,561.87 204.05,561.19 179.67,555.35 C168.76,552.74 159.22,550.13 158.47,549.55 C156.68,548.17 155.00,532.45 155.00,517.08 C155.00,504.00 156.71,485.01 158.01,483.64 C158.45,483.17 168.87,480.31 181.16,477.29 C193.45,474.27 204.03,471.29 204.68,470.65 C205.33,470.02 207.04,462.80 208.48,454.60 C211.20,439.21 215.53,421.12 219.09,410.29 L 219.20 409.96 C220.33,406.52 221.07,404.29 220.77,402.20 C220.20,398.24 215.91,394.81 203.50,384.73 C194.15,377.14 185.91,370.34 185.19,369.62 C184.12,368.55 184.63,366.47 188.03,357.92 C192.92,345.64 204.28,322.98 209.87,314.32 L 213.83 308.20 L 229.66 311.51 C238.37,313.33 248.70,315.60 252.61,316.57 C256.52,317.53 260.41,318.06 261.24,317.74 C262.07,317.42 267.94,310.26 274.27,301.83 C280.61,293.40 290.00,281.82 295.15,276.10 C295.95,275.21 296.71,274.36 297.43,273.56 C306.70,263.28 308.79,260.96 308.60,258.85 C308.52,258.07 308.15,257.33 307.70,256.22 C306.88,254.17 302.56,244.75 298.11,235.28 C293.65,225.81 290.00,217.42 290.00,216.64 C290.00,211.82 339.57,173.86 343.76,175.46 C345.05,175.96 360.14,187.49 373.50,198.20 C376.79,200.84 380.31,203.00 381.32,203.00 C382.32,203.00 388.85,199.93 395.82,196.18 C410.94,188.05 422.61,182.61 437.90,176.58 C444.12,174.13 450.06,171.35 451.10,170.41 C452.78,168.89 453.00,167.18 453.01,155.60 C453.01,148.39 453.30,138.13 453.65,132.78 L 454.30 123.07 L 461.90 120.56 C476.82,115.63 508.41,109.00 516.94,109.00 L 520.62 109.00 L 530.57 129.25 L 540.52 149.50 L 567.01 149.19 C581.58,149.02 599.58,149.32 607.00,149.86 C617.22,150.59 620.96,150.54 622.37,149.63 C623.40,148.96 628.80,139.44 634.37,128.46 L 644.50 108.50 L 648.50 108.83 C662.23,109.97 690.68,116.26 704.23,121.16 C711.12,123.65 710.68,121.94 711.45,149.47 C711.84,163.51 712.37,169.78 713.25,170.60 C713.94,171.24 719.90,173.88 726.50,176.47 C733.10,179.05 748.55,186.14 760.83,192.21 C779.58,201.48 783.51,203.09 785.36,202.25 C786.57,201.69 793.62,196.40 801.03,190.49 C808.44,184.58 816.17,178.63 818.20,177.27 L 821.90 174.80 L 827.97 178.48 C836.75,183.81 860.36,201.89 868.42,209.45 L 875.35 215.94 L 865.67 236.78 C860.35,248.24 856.00,258.39 856.00,259.34 C856.00,260.28 860.40,265.88 865.78,271.78 C877.33,284.44 885.35,294.39 895.02,308.03 C899.36,314.16 901.30,316.90 903.84,317.70 C905.90,318.34 908.36,317.70 912.83,316.54 L 912.94 316.52 C916.09,315.70 925.92,313.50 934.78,311.64 L 950.89 308.24 L 953.55 312.26 C960.95,323.43 980.01,363.55 979.99,367.90 C979.99,368.78 977.63,371.41 974.74,373.74 C971.86,376.07 964.55,381.98 958.50,386.87 C952.45,391.76 946.42,396.93 945.11,398.35 L 942.72 400.93 L 945.84 411.71 C950.01,426.08 954.55,445.56 956.56,457.66 C957.47,463.07 958.78,468.42 959.49,469.54 C960.51,471.17 965.30,472.69 982.91,477.00 C995.09,479.98 1005.48,482.68 1005.99,483.00 C1007.97,484.22 1009.24,503.30 1008.69,523.36 C1007.98,548.81 1007.68,550.17 1002.46,551.31 C985.41,555.06 959.56,562.09 958.87,563.18 C958.41,563.90 958.02,565.62 958.01,567.00 C957.97,571.23 951.28,602.79 947.54,616.35 C945.59,623.42 944.00,630.24 944.00,631.52 C944.00,633.32 947.77,636.87 960.75,647.31 C969.96,654.71 978.31,661.68 979.31,662.78 C981.07,664.73 980.98,665.14 976.12,677.29 C969.14,694.76 955.19,721.53 952.06,723.46 C951.56,723.77 940.45,721.77 927.38,719.02 C914.30,716.26 903.48,714.00 903.31,714.00 C903.15,714.00 900.45,717.49 897.32,721.75 C889.21,732.80 881.36,742.45 867.28,758.69 L 854.98 772.88 L 856.91 777.69 C857.96,780.34 862.24,789.81 866.41,798.75 C870.59,807.68 874.00,815.40 874.00,815.91 C874.00,818.84 834.24,850.19 823.36,855.84 C823.01,856.02 822.74,856.18 822.44,856.27 C820.79,856.77 818.45,855.00 800.04,841.00 L 798.00 839.44 C792.22,835.05 786.20,830.63 784.62,829.62 L 781.73 827.78 L 775.12 831.41 C762.37,838.40 732.41,852.71 722.84,856.38 C717.53,858.42 712.93,860.75 712.61,861.57 C712.30,862.39 711.57,873.05 710.99,885.26 C710.41,897.47 709.61,907.76 709.22,908.12 C708.36,908.91 692.66,913.46 681.62,916.13 C673.35,918.13 644.84,923.22 644.50,922.77 C644.39,922.62 639.47,913.38 633.56,902.23 C627.65,891.09 622.05,881.56 621.12,881.06 C620.09,880.51 612.16,880.58 601.09,881.24 C587.78,882.03 577.51,882.02 563.65,881.21 C546.54,880.22 544.36,880.27 542.78,881.70 C541.81,882.58 536.69,891.67 531.42,901.90 C526.14,912.13 521.36,921.06 520.79,921.75 ZM 558.00 737.50 C574.08,739.33 601.05,738.70 618.50,736.08 C640.10,732.84 665.04,724.90 685.50,714.74 C763.83,675.86 812.04,600.40 811.99,516.76 C811.94,434.72 766.58,360.79 692.00,321.18 C674.86,312.08 649.09,302.96 629.50,299.07 C584.84,290.19 538.09,294.17 496.65,310.38 C468.35,321.44 441.65,338.64 419.62,359.99 C405.74,373.44 398.46,382.09 388.56,396.90 C370.75,423.57 358.74,455.59 354.46,487.82 C352.43,503.12 352.43,531.16 354.47,545.60 C363.43,609.10 398.00,663.10 453.40,700.07 C469.50,710.82 488.18,719.84 508.00,726.44 C526.20,732.49 539.13,735.35 558.00,737.50 ZM 512.08 479.21 C511.34,476.04 510.77,473.59 510.47,472.25 C509.54,468.11 508.35,469.94 506.59,478.25 C506.08,480.63 505.21,484.53 504.22,488.81 C505.29,484.06 506.24,479.63 506.77,476.91 C507.72,472.01 508.76,468.01 509.08,468.00 C509.40,468.00 510.45,471.71 511.42,476.25 C511.57,476.95 511.79,477.95 512.08,479.21 ZM 522.23 521.62 C521.63,519.18 520.98,516.50 520.30,513.68 L 520.50 514.50 C521.10,516.95 521.68,519.33 522.23,521.62 Z" fill="rgb(75,106,154)"/>
<path d="M 0.00 485.00 L 0.00 0.00 L 540.50 0.00 L 1081.00 0.00 L 1081.00 485.00 L 1081.00 970.00 L 540.50 970.00 L 0.00 970.00 L 0.00 485.00 ZM 520.79 921.75 C521.36,921.06 526.14,912.13 531.42,901.90 C536.69,891.67 541.81,882.58 542.78,881.70 C544.36,880.27 546.54,880.22 563.65,881.21 C577.51,882.02 587.78,882.03 601.09,881.24 C612.16,880.58 620.09,880.51 621.12,881.06 C622.05,881.56 627.65,891.09 633.56,902.23 C639.47,913.38 644.39,922.62 644.50,922.77 C644.84,923.22 673.35,918.13 681.62,916.13 C692.66,913.46 708.36,908.91 709.22,908.12 C709.61,907.76 710.41,897.47 710.99,885.26 C711.57,873.05 712.30,862.39 712.61,861.57 C712.93,860.75 717.53,858.42 722.84,856.38 C732.41,852.71 762.37,838.40 775.12,831.41 L 781.73 827.78 L 784.62 829.62 C786.20,830.63 792.22,835.05 798.00,839.44 C821.83,857.56 821.04,857.05 823.36,855.84 C834.24,850.19 874.00,818.84 874.00,815.91 C874.00,815.40 870.59,807.68 866.41,798.75 C862.24,789.81 857.96,780.34 856.91,777.69 L 854.98 772.88 L 867.28 758.69 C881.36,742.45 889.21,732.80 897.32,721.75 C900.45,717.49 903.15,714.00 903.31,714.00 C903.48,714.00 914.30,716.26 927.38,719.02 C940.45,721.77 951.56,723.77 952.06,723.46 C955.19,721.53 969.14,694.76 976.12,677.29 C980.98,665.14 981.07,664.73 979.31,662.78 C978.31,661.68 969.96,654.71 960.75,647.31 C947.77,636.87 944.00,633.32 944.00,631.52 C944.00,630.24 945.59,623.42 947.54,616.35 C951.28,602.79 957.97,571.23 958.01,567.00 C958.02,565.62 958.41,563.90 958.87,563.18 C959.56,562.09 985.41,555.06 1002.46,551.31 C1007.68,550.17 1007.98,548.81 1008.69,523.36 C1009.24,503.30 1007.97,484.22 1005.99,483.00 C1005.48,482.68 995.09,479.98 982.91,477.00 C965.30,472.69 960.51,471.17 959.49,469.54 C958.78,468.42 957.47,463.07 956.56,457.66 C954.55,445.56 950.01,426.08 945.84,411.71 L 942.72 400.93 L 945.11 398.35 C946.42,396.93 952.45,391.76 958.50,386.87 C964.55,381.98 971.86,376.07 974.74,373.74 C977.63,371.41 979.99,368.78 979.99,367.90 C980.01,363.55 960.95,323.43 953.55,312.26 L 950.89 308.24 L 934.78 311.64 C925.92,313.50 916.09,315.70 912.94,316.52 C902.85,319.13 902.91,319.16 895.02,308.03 C885.35,294.39 877.33,284.44 865.78,271.78 C860.40,265.88 856.00,260.28 856.00,259.34 C856.00,258.39 860.35,248.24 865.67,236.78 L 875.35 215.94 L 868.42 209.45 C860.36,201.89 836.75,183.81 827.97,178.48 L 821.90 174.80 L 818.20 177.27 C816.17,178.63 808.44,184.58 801.03,190.49 C793.62,196.40 786.57,201.69 785.36,202.25 C783.51,203.09 779.58,201.48 760.83,192.21 C748.55,186.14 733.10,179.05 726.50,176.47 C719.90,173.88 713.94,171.24 713.25,170.60 C712.37,169.78 711.84,163.51 711.45,149.47 C710.68,121.94 711.12,123.65 704.23,121.16 C690.68,116.26 662.23,109.97 648.50,108.83 L 644.50 108.50 L 634.37 128.46 C628.80,139.44 623.40,148.96 622.37,149.63 C620.96,150.54 617.22,150.59 607.00,149.86 C599.58,149.32 581.58,149.02 567.01,149.19 L 540.52 149.50 L 530.57 129.25 L 520.62 109.00 L 516.94 109.00 C508.41,109.00 476.82,115.63 461.90,120.56 L 454.30 123.07 L 453.65 132.78 C453.30,138.13 453.01,148.39 453.01,155.60 C453.00,167.18 452.78,168.89 451.10,170.41 C450.06,171.35 444.12,174.13 437.90,176.58 C422.61,182.61 410.94,188.05 395.82,196.18 C388.85,199.93 382.32,203.00 381.32,203.00 C380.31,203.00 376.79,200.84 373.50,198.20 C360.14,187.49 345.05,175.96 343.76,175.46 C339.57,173.86 290.00,211.82 290.00,216.64 C290.00,217.42 293.65,225.81 298.11,235.28 C302.56,244.75 306.88,254.17 307.70,256.22 C309.44,260.57 310.20,259.38 295.15,276.10 C290.00,281.82 280.61,293.40 274.27,301.83 C267.94,310.26 262.07,317.42 261.24,317.74 C260.41,318.06 256.52,317.53 252.61,316.57 C248.70,315.60 238.37,313.33 229.66,311.51 L 213.83 308.20 L 209.87 314.32 C204.28,322.98 192.92,345.64 188.03,357.92 C184.63,366.47 184.12,368.55 185.19,369.62 C185.91,370.34 194.15,377.14 203.50,384.73 C222.65,400.28 222.48,400.00 219.09,410.29 C215.53,421.12 211.20,439.21 208.48,454.60 C207.04,462.80 205.33,470.02 204.68,470.65 C204.03,471.29 193.45,474.27 181.16,477.29 C168.87,480.31 158.45,483.17 158.01,483.64 C156.71,485.01 155.00,504.00 155.00,517.08 C155.00,532.45 156.68,548.17 158.47,549.55 C159.22,550.13 168.76,552.74 179.67,555.35 C204.05,561.19 205.71,561.87 206.46,566.21 C211.36,594.55 213.89,606.14 218.62,621.89 C220.05,626.61 220.89,631.31 220.55,632.65 C220.23,633.95 218.05,636.38 215.73,638.05 C206.48,644.67 184.12,663.58 184.06,664.83 C183.76,671.38 209.91,724.00 213.47,724.00 C214.07,724.00 222.87,722.18 233.03,719.96 C258.83,714.31 259.58,714.19 261.39,715.20 C262.28,715.70 266.47,720.69 270.70,726.30 C280.19,738.89 289.10,749.61 300.35,762.00 C305.09,767.22 308.98,772.06 308.99,772.74 C308.99,773.43 304.95,783.07 300.00,794.16 C295.05,805.26 291.00,814.89 291.00,815.56 C291.00,818.54 313.71,837.36 332.76,850.16 C340.78,855.56 343.40,856.85 344.76,856.11 C345.72,855.59 353.02,850.15 361.00,844.02 C368.98,837.89 377.25,831.68 379.39,830.21 L 383.28 827.55 L 389.89 831.32 C400.79,837.53 431.90,852.51 441.00,855.93 C445.67,857.68 450.22,859.96 451.11,861.00 C452.39,862.49 452.85,866.42 453.38,880.19 C454.27,903.22 454.82,907.71 456.86,908.53 C462.08,910.63 484.53,916.48 497.00,918.97 C519.49,923.48 519.37,923.46 520.79,921.75 ZM 558.00 737.50 C539.13,735.35 526.20,732.49 508.00,726.44 C488.18,719.84 469.50,710.82 453.40,700.07 C398.00,663.10 363.43,609.10 354.47,545.60 C352.43,531.16 352.43,503.12 354.46,487.82 C358.74,455.59 370.75,423.57 388.56,396.90 C398.46,382.09 405.74,373.44 419.62,359.99 C441.65,338.64 468.35,321.44 496.65,310.38 C538.09,294.17 584.84,290.19 629.50,299.07 C649.09,302.96 674.86,312.08 692.00,321.18 C766.58,360.79 811.94,434.72 811.99,516.76 C812.04,600.40 763.83,675.86 685.50,714.74 C665.04,724.90 640.10,732.84 618.50,736.08 C601.05,738.70 574.08,739.33 558.00,737.50 ZM 471.92 623.75 C472.40,622.51 474.91,612.50 477.51,601.50 C480.11,590.50 482.65,579.80 483.16,577.73 L 484.09 573.97 L 509.25 574.23 L 534.42 574.50 L 540.50 598.50 C543.85,611.70 546.89,623.29 547.26,624.25 C547.87,625.82 549.62,626.00 563.97,626.00 C576.28,626.00 580.00,625.70 580.00,624.73 C580.00,622.89 576.22,608.26 567.66,576.98 C560.84,552.05 554.73,529.30 542.53,483.50 C540.19,474.70 534.76,454.34 530.48,438.25 L 522.68 409.00 L 509.50 409.00 L 496.31 409.00 L 493.02 421.25 C491.21,427.99 487.36,442.50 484.47,453.50 C481.58,464.50 476.87,482.27 474.01,493.00 C471.16,503.73 467.10,519.03 464.99,527.00 C462.89,534.97 459.98,545.78 458.52,551.00 C457.07,556.22 453.69,568.83 451.01,579.00 C448.33,589.17 444.53,603.34 442.55,610.48 C440.58,617.62 439.18,624.04 439.45,624.73 C439.81,625.68 443.86,626.00 455.49,626.00 C470.69,626.00 471.06,625.95 471.92,623.75 ZM 618.00 560.14 L 618.50 494.78 L 627.33 522.64 C632.19,537.96 638.49,557.70 641.33,566.50 L 646.50 582.50 L 654.19 582.79 C660.76,583.04 662.02,582.82 662.81,581.29 C663.31,580.31 667.43,567.58 671.96,553.00 C676.49,538.42 681.93,521.33 684.05,515.00 C686.17,508.67 688.49,501.48 689.21,499.00 C690.31,495.16 690.57,504.16 691.00,560.00 L 691.50 625.50 L 706.50 625.50 L 721.50 625.50 L 721.75 517.25 L 722.01 409.00 L 707.00 409.00 C698.75,409.00 692.00,409.12 692.00,409.27 C692.00,409.86 662.90,496.17 658.94,507.32 C656.63,513.82 654.42,518.77 654.03,518.32 C653.39,517.57 643.30,487.79 624.45,431.00 L 617.32 409.50 L 602.16 409.22 L 587.00 408.95 L 587.00 516.81 C587.00,576.13 587.31,624.98 587.69,625.36 C588.07,625.74 594.94,625.93 602.94,625.78 L 617.50 625.50 L 618.00 560.14 ZM 492.71 545.34 C491.62,545.03 491.10,544.18 491.38,543.17 C491.63,542.25 493.25,535.42 494.98,528.00 C496.71,520.58 499.64,508.20 501.48,500.50 C503.33,492.80 505.62,482.79 506.59,478.25 C508.35,469.94 509.54,468.11 510.47,472.25 C512.00,479.10 520.51,514.73 523.90,528.49 C526.07,537.29 527.62,544.72 527.34,544.99 C526.68,545.66 495.01,545.98 492.71,545.34 Z" fill="rgb(253,253,253)"/>
</g>
</svg>